<?xml version="1.0" standalone="no"?>
<!DOCTYPE svg PUBLIC "-//W3C//DTD SVG 20010904//EN"
 "http://www.w3.org/TR/2001/REC-SVG-20010904/DTD/svg10.dtd">
<svg version="1.0" xmlns="http://www.w3.org/2000/svg"
 width="300.000000pt" height="250.000000pt" viewBox="0 0 300.000000 250.000000"
 preserveAspectRatio="xMidYMid meet">
<metadata>
Created by potrace 1.10, written by Peter Selinger 2001-2011
</metadata>
<g transform="translate(0.000000,250.000000) scale(0.100000,-0.100000)"
fill="#000000" stroke="none">
<path d="M107 2374 c-12 -12 -8 -2126 3 -2119 7 4 10 367 10 1056 l0 1049
1375 0 1375 0 0 -1055 0 -1055 -1377 -3 -1378 -2 1383 -3 1382 -2 0 1064 c0
898 -2 1065 -14 1069 -21 8 -2751 9 -2759 1z"/>
<path d="M1355 2116 c-36 -16 -104 -83 -182 -179 -78 -98 -172 -195 -208 -215
-41 -22 -97 -42 -106 -37 -11 7 -32 -23 -24 -35 3 -5 19 -10 34 -10 16 0 40
-9 55 -21 57 -45 65 -92 52 -314 -8 -139 -3 -168 35 -204 23 -21 83 -29 93
-13 8 14 -8 30 -33 33 -13 2 -33 16 -44 31 -20 26 -20 32 -8 165 9 98 9 156 2
200 -11 67 -34 121 -57 130 -22 8 -17 17 21 37 42 23 132 114 218 221 84 105
135 155 175 172 34 14 39 24 20 41 -9 7 -22 6 -43 -2z m-422 -453 c-3 -7 -9
-13 -14 -13 -5 0 -9 6 -9 13 0 8 6 14 14 14 8 0 12 -6 9 -14z"/>
<path d="M490 2080 c-82 -36 -126 -110 -118 -200 6 -57 33 -94 85 -116 78 -34
239 4 197 46 -6 6 -28 3 -54 -6 -67 -24 -127 -14 -163 26 -26 29 -29 38 -25
82 4 38 12 57 38 83 63 65 121 67 310 10 46 -14 92 -25 102 -25 23 0 23 -3 -6
-64 -13 -28 -50 -130 -81 -226 -70 -214 -90 -263 -129 -319 -73 -103 -224
-115 -280 -21 -22 38 -21 117 3 160 25 48 80 90 127 97 47 7 65 19 57 40 -5
12 -15 14 -45 9 -92 -15 -163 -77 -193 -167 -58 -173 114 -306 284 -220 82 42
116 106 210 388 79 242 106 298 161 345 22 19 40 40 40 45 0 24 -29 20 -63 -8
-41 -33 -33 -34 -192 13 -110 32 -226 44 -265 28z"/>
<path d="M1760 1958 c-5 -13 -20 -52 -33 -88 l-22 -65 -40 3 c-48 3 -70 -9
-61 -33 5 -15 14 -17 51 -11 43 5 45 5 35 -14 -6 -10 -23 -57 -40 -102 -45
-129 -104 -240 -144 -276 -41 -36 -57 -39 -77 -16 -18 22 -2 93 67 281 40 110
53 158 46 165 -15 15 -42 -8 -42 -33 0 -25 -8 -24 -36 6 -18 19 -33 25 -66 25
-69 0 -117 -42 -173 -151 -100 -196 -80 -367 41 -345 37 8 119 79 109 96 -6 9
33 95 40 88 4 -3 -18 -90 -30 -120 -5 -11 2 -26 20 -44 22 -21 33 -25 60 -21
40 7 82 34 90 60 8 23 25 22 25 -2 0 -11 12 -29 26 -40 57 -45 124 -15 169 74
16 31 31 52 33 45 7 -19 -19 -88 -34 -94 -20 -8 -18 -48 2 -44 10 2 34 52 68
143 63 169 98 235 148 281 60 54 118 42 118 -25 0 -11 -18 -75 -40 -141 -48
-143 -52 -205 -17 -238 13 -12 33 -22 46 -22 31 0 75 25 99 55 19 23 43 34 41
18 -6 -35 46 -73 97 -73 35 0 85 34 79 53 -2 7 11 30 30 52 l35 40 -11 -35
c-7 -19 -16 -41 -22 -47 -5 -7 -7 -13 -3 -13 3 0 -3 -9 -14 -20 -11 -11 -22
-31 -26 -44 -3 -14 -13 -27 -22 -30 -10 -2 -53 -12 -96 -22 -64 -14 -86 -25
-118 -54 -31 -30 -38 -44 -38 -74 0 -48 13 -72 52 -92 38 -20 86 -14 127 16
32 22 81 95 101 151 11 30 24 41 83 68 106 49 186 138 236 259 12 29 12 35 1
42 -20 12 -27 5 -50 -47 -34 -78 -97 -151 -168 -197 -90 -58 -125 -92 -152
-146 -27 -54 -55 -87 -92 -106 -36 -19 -50 -18 -76 6 -53 49 -4 109 109 135
64 14 77 21 99 50 14 19 30 35 36 35 7 0 14 8 17 18 9 30 92 263 136 381 34
91 40 115 29 122 -21 13 -33 -7 -83 -146 -55 -150 -93 -227 -135 -272 -37 -40
-62 -48 -97 -31 -48 23 -43 66 28 259 58 157 67 207 36 197 -6 -3 -32 -61 -57
-129 -61 -165 -115 -273 -157 -309 -37 -33 -52 -37 -71 -18 -20 20 -14 61 28
193 22 69 40 143 40 165 0 65 -42 98 -115 91 -25 -2 -65 -32 -68 -51 -3 -19
-67 -107 -67 -93 0 23 31 97 45 107 19 13 87 194 79 208 -20 31 -41 -8 -114
-213 -84 -237 -120 -315 -166 -365 -37 -42 -88 -62 -109 -44 -26 21 -17 70 42
243 l57 167 52 0 c53 0 74 16 51 39 -16 16 -48 13 -89 -8 -43 -24 -60 -15 -19
10 21 12 34 34 50 80 11 35 21 71 21 81 0 26 -29 22 -40 -4z m-320 -220 c28
-30 26 -51 -20 -164 -52 -126 -100 -200 -146 -222 -35 -16 -36 -16 -55 7 -23
28 -24 67 -4 146 23 90 69 177 115 218 46 42 80 47 110 15z m60 -21 c0 -16 -3
-17 -15 -7 -8 7 -15 16 -15 20 0 3 7 7 15 7 8 0 15 -9 15 -20z m91 -320 c-19
-19 -24 1 -10 35 l14 33 3 -29 c2 -16 -1 -33 -7 -39z m645 7 c-3 -8 -10 -12
-16 -9 -7 4 -6 14 2 28 12 24 24 8 14 -19z"/>
<path d="M1630 946 c-46 -25 -79 -82 -161 -274 -55 -129 -100 -199 -135 -212
-77 -30 -80 49 -9 276 32 102 38 113 64 122 47 16 74 48 61 72 -6 11 -19 20
-30 20 -20 0 -70 -47 -70 -66 0 -6 -33 -17 -72 -24 -150 -26 -198 -57 -198
-124 0 -23 6 -48 13 -57 17 -22 55 -41 67 -34 17 11 11 20 -20 32 -59 22 -45
99 23 128 34 14 157 39 163 33 2 -2 -10 -46 -27 -97 -65 -203 -68 -284 -13
-310 22 -10 33 -9 63 7 45 23 90 96 156 250 65 152 103 214 142 232 31 14 38
30 17 36 -5 2 -20 -3 -34 -10z m-216 -51 c-35 -26 -47 -15 -17 17 11 13 20 15
27 8 7 -7 4 -15 -10 -25z"/>
<path d="M1994 804 c-16 -50 -20 -55 -41 -49 -29 7 -44 -1 -37 -19 3 -8 15
-11 31 -8 23 4 25 2 19 -14 -5 -10 -19 -48 -33 -83 -32 -85 -73 -145 -101
-149 -18 -3 -22 1 -22 26 0 15 11 62 25 102 29 86 31 103 9 124 -19 19 -65 21
-82 4 -10 -10 -15 -10 -22 2 -13 21 -24 6 -45 -60 -20 -63 -71 -167 -90 -187
-23 -22 -55 -16 -55 10 0 24 52 184 72 220 7 15 7 22 -3 28 -11 6 -21 -12 -45
-74 -17 -45 -37 -105 -44 -134 -12 -48 -12 -54 5 -73 21 -23 45 -26 63 -8 10
10 15 10 22 -2 13 -21 23 -7 54 84 42 119 94 192 133 184 27 -5 27 -47 -1
-128 -30 -85 -32 -113 -10 -134 22 -23 52 -20 78 9 l23 25 11 -25 c7 -15 20
-25 32 -25 29 0 76 26 84 47 6 14 10 12 26 -15 25 -40 57 -42 94 -5 14 14 27
24 29 22 1 -2 7 -13 13 -24 18 -32 51 -30 84 5 l29 31 7 -25 c8 -34 46 -44 79
-22 28 18 29 17 16 -17 -7 -18 -19 -26 -51 -31 -87 -14 -130 -57 -111 -110 26
-68 115 -36 159 58 16 34 30 47 56 56 19 6 53 31 75 55 23 25 41 38 41 31 0
-21 49 -56 77 -56 46 0 94 32 128 84 18 28 31 54 28 59 -9 15 -23 6 -39 -28
-47 -100 -174 -118 -174 -24 0 26 7 32 63 57 73 33 121 83 111 116 -8 27 -22
36 -55 36 -50 0 -87 -43 -134 -156 -29 -69 -66 -115 -116 -144 -39 -21 -42
-22 -35 -4 5 10 29 75 56 144 26 69 51 133 55 143 5 12 3 17 -8 17 -8 0 -18
-7 -21 -16 -6 -16 -8 -16 -24 0 -46 41 -125 -7 -153 -91 -30 -94 -78 -163
-112 -163 -17 0 -19 5 -15 38 3 20 22 80 41 132 20 53 32 99 27 104 -4 4 -13
-1 -20 -13 -10 -19 -13 -20 -26 -6 -25 24 -72 19 -101 -12 -14 -16 -43 -66
-65 -113 -22 -47 -49 -95 -60 -107 -23 -24 -62 -31 -73 -12 -4 6 10 62 31 125
39 115 39 115 69 112 21 -2 30 1 30 12 0 10 -8 14 -23 12 -22 -3 -23 -1 -17
30 4 18 12 38 17 45 10 13 3 33 -12 33 -5 0 -17 -25 -26 -56z m222 -99 c11
-17 9 -30 -17 -90 -40 -92 -74 -137 -102 -133 -35 5 -35 73 -1 149 41 90 89
121 120 74z m249 12 c14 -11 17 -21 12 -46 -8 -40 -51 -131 -78 -165 -23 -29
-63 -35 -73 -10 -15 39 43 188 86 218 27 19 29 19 53 3z m271 -1 c10 -25 -15
-55 -67 -82 -28 -14 -53 -23 -56 -20 -7 7 22 52 55 89 28 29 59 35 68 13z
m-360 -344 c-4 -11 -16 -32 -27 -46 -37 -47 -112 -25 -82 23 9 14 103 53 111
45 2 -1 1 -11 -2 -22z"/>
<path d="M2305 340 c-3 -6 1 -7 9 -4 18 7 21 14 7 14 -6 0 -13 -4 -16 -10z"/>
<path d="M1620 811 c0 -15 6 -21 21 -21 14 0 19 5 17 17 -5 26 -38 29 -38 4z"/>
<path d="M1201 514 c0 -11 3 -14 6 -6 3 7 2 16 -1 19 -3 4 -6 -2 -5 -13z"/>
</g>
</svg>
